<?xml version="1.0" encoding="UTF-8" standalone="no"?>
<!-- Generator: Adobe Illustrator 16.2.1, SVG Export Plug-In . SVG Version: 6.00 Build 0)  -->

<svg
   xmlns:dc="http://purl.org/dc/elements/1.1/"
   xmlns:cc="http://creativecommons.org/ns#"
   xmlns:rdf="http://www.w3.org/1999/02/22-rdf-syntax-ns#"
   xmlns:svg="http://www.w3.org/2000/svg"
   xmlns="http://www.w3.org/2000/svg"
   xmlns:sodipodi="http://sodipodi.sourceforge.net/DTD/sodipodi-0.dtd"
   xmlns:inkscape="http://www.inkscape.org/namespaces/inkscape"
   version="1.1"
   id="Layer_1"
   x="0px"
   y="0px"
   width="320"
   height="320"
   viewBox="0 0 320 320"
   xml:space="preserve"
   inkscape:version="0.48.5 r10040"
   sodipodi:docname="arrow-expand.svg"><metadata
   id="metadata3151"><rdf:RDF><cc:Work
       rdf:about=""><dc:format>image/svg+xml</dc:format><dc:type
         rdf:resource="http://purl.org/dc/dcmitype/StillImage" /></cc:Work></rdf:RDF></metadata><defs
   id="defs3149" /><sodipodi:namedview
   pagecolor="#ffffff"
   bordercolor="#666666"
   borderopacity="1"
   objecttolerance="10"
   gridtolerance="10"
   guidetolerance="10"
   inkscape:pageopacity="0"
   inkscape:pageshadow="2"
   inkscape:window-width="708"
   inkscape:window-height="480"
   id="namedview3147"
   showgrid="false"
   fit-margin-top="0"
   fit-margin-left="0"
   fit-margin-right="0"
   fit-margin-bottom="0"
   inkscape:zoom="0.4609375"
   inkscape:cx="160"
   inkscape:cy="160"
   inkscape:window-x="727"
   inkscape:window-y="186"
   inkscape:window-maximized="0"
   inkscape:current-layer="Layer_1" />
<g
   id="g3137"
   transform="translate(-96,-96)"
   style="fill:#f0e7d5;fill-opacity:1">
	<polygon
   points="416,96 416,224 366.1,174.1 302.3,238 274,209.7 337.9,145.9 288,96 "
   id="polygon3139"
   style="fill:#f0e7d5;fill-opacity:1" />
	<polygon
   points="416,416 416,288 366.1,337.9 302.3,274 274,302.3 337.9,366.1 288,416 "
   id="polygon3141"
   style="fill:#f0e7d5;fill-opacity:1" />
	<polygon
   points="96,416 96,288 145.9,337.9 209.7,274 238,302.3 174.1,366.1 224,416 "
   id="polygon3143"
   style="fill:#f0e7d5;fill-opacity:1" />
	<polygon
   points="96,96 96,224 145.9,174.1 209.7,238 238,209.7 174.1,145.9 224,96 "
   id="polygon3145"
   style="fill:#f0e7d5;fill-opacity:1" />
</g>
</svg>