<?xml version="1.0" encoding="UTF-8" standalone="no"?>
<!-- Generator: Adobe Illustrator 16.2.1, SVG Export Plug-In . SVG Version: 6.00 Build 0)  -->

<svg
   xmlns:dc="http://purl.org/dc/elements/1.1/"
   xmlns:cc="http://creativecommons.org/ns#"
   xmlns:rdf="http://www.w3.org/1999/02/22-rdf-syntax-ns#"
   xmlns:svg="http://www.w3.org/2000/svg"
   xmlns="http://www.w3.org/2000/svg"
   xmlns:sodipodi="http://sodipodi.sourceforge.net/DTD/sodipodi-0.dtd"
   xmlns:inkscape="http://www.inkscape.org/namespaces/inkscape"
   version="1.1"
   id="Layer_1"
   x="0px"
   y="0px"
   width="384"
   height="320"
   viewBox="0 0 384 320"
   xml:space="preserve"
   inkscape:version="0.48.5 r10040"
   sodipodi:docname="navicon-round.svg"><metadata
   id="metadata3030"><rdf:RDF><cc:Work
       rdf:about=""><dc:format>image/svg+xml</dc:format><dc:type
         rdf:resource="http://purl.org/dc/dcmitype/StillImage" /></cc:Work></rdf:RDF></metadata><defs
   id="defs3028" /><sodipodi:namedview
   pagecolor="#ffffff"
   bordercolor="#666666"
   borderopacity="1"
   objecttolerance="10"
   gridtolerance="10"
   guidetolerance="10"
   inkscape:pageopacity="0"
   inkscape:pageshadow="2"
   inkscape:window-width="708"
   inkscape:window-height="480"
   id="namedview3026"
   showgrid="false"
   inkscape:zoom="0.4609375"
   inkscape:cx="254"
   inkscape:cy="57.559322"
   inkscape:window-x="654"
   inkscape:window-y="165"
   inkscape:window-maximized="0"
   inkscape:current-layer="Layer_1"
   fit-margin-top="0"
   fit-margin-left="0"
   fit-margin-right="0"
   fit-margin-bottom="0" />
<g
   id="g3018"
   transform="translate(-64,-96)"
   style="fill:#f0e7d5;fill-opacity:1">
	<path
   d="M 417.4,224 H 94.6 C 77.7,224 64,238.3 64,256 c 0,17.7 13.7,32 30.6,32 h 322.8 c 16.9,0 30.6,-14.3 30.6,-32 0,-17.7 -13.7,-32 -30.6,-32 z"
   id="path3020"
   inkscape:connector-curvature="0"
   style="fill:#f0e7d5;fill-opacity:1" />
	<path
   d="M 417.4,96 H 94.6 C 77.7,96 64,110.3 64,128 c 0,17.7 13.7,32 30.6,32 h 322.8 c 16.9,0 30.6,-14.3 30.6,-32 0,-17.7 -13.7,-32 -30.6,-32 z"
   id="path3022"
   inkscape:connector-curvature="0"
   style="fill:#f0e7d5;fill-opacity:1" />
	<path
   d="M 417.4,352 H 94.6 C 77.7,352 64,366.3 64,384 c 0,17.7 13.7,32 30.6,32 h 322.8 c 16.9,0 30.6,-14.3 30.6,-32 0,-17.7 -13.7,-32 -30.6,-32 z"
   id="path3024"
   inkscape:connector-curvature="0"
   style="fill:#f0e7d5;fill-opacity:1" />
</g>
</svg>